<?xml version="1.0" encoding="UTF-8" standalone="no"?>
<!-- Created with Inkscape (http://www.inkscape.org/) -->
<svg
   xmlns:dc="http://purl.org/dc/elements/1.1/"
   xmlns:cc="http://web.resource.org/cc/"
   xmlns:rdf="http://www.w3.org/1999/02/22-rdf-syntax-ns#"
   xmlns:svg="http://www.w3.org/2000/svg"
   xmlns="http://www.w3.org/2000/svg"
   xmlns:sodipodi="http://sodipodi.sourceforge.net/DTD/sodipodi-0.dtd"
   xmlns:inkscape="http://www.inkscape.org/namespaces/inkscape"
   width="207.437"
   height="85.286003"
   id="svg2180"
   sodipodi:version="0.32"
   inkscape:version="0.45.1"
   version="1.0"
   sodipodi:docbase="C:\Documents and Settings\Casa\Desktop"
   sodipodi:docname="desenho.svg"
   inkscape:output_extension="org.inkscape.output.svg.inkscape">
  <defs
     id="defs2182" />
  <sodipodi:namedview
     id="base"
     pagecolor="#ffffff"
     bordercolor="#666666"
     borderopacity="1.0"
     inkscape:pageopacity="0.0"
     inkscape:pageshadow="2"
     inkscape:zoom="0.35"
     inkscape:cx="350"
     inkscape:cy="520"
     inkscape:document-units="px"
     inkscape:current-layer="layer1" />
  <metadata
     id="metadata2185">
    <rdf:RDF>
      <cc:Work
         rdf:about="">
        <dc:format>image/svg+xml</dc:format>
        <dc:type
           rdf:resource="http://purl.org/dc/dcmitype/StillImage" />
      </cc:Work>
    </rdf:RDF>
  </metadata>
  <g
     inkscape:label="Camada 1"
     inkscape:groupmode="layer"
     id="layer1">
    <path
       d="M 6.2058211,10.476651 C 6.4308211,10.251651 6.5418211,10.029651 6.5418211,9.8056507 C 6.5418211,9.5256507 6.4008211,9.3026507 6.1218211,9.1346507 C 6.0088211,9.0756507 5.7848211,9.0236507 5.4478211,8.9666507 C 5.1118211,8.9076407 4.7598211,8.8416507 4.3968211,8.7576507 C 4.0318211,8.6736507 3.6958211,8.5736407 3.3868211,8.4626507 C 3.0778211,8.3516507 2.9238211,8.2106407 2.9238211,8.0426507 C 2.9238211,7.6486507 3.5688211,7.3136407 4.8588211,7.0366407 C 5.9808211,6.7576507 7.1298211,6.5576507 8.3088211,6.4466507 C 9.4868211,6.3356507 10.634821,6.2786507 11.757822,6.2786507 C 17.309812,6.2786507 22.511812,6.7576507 27.362812,7.7066507 C 32.213812,8.6556507 37.135812,10.085651 42.127812,11.984651 C 44.483812,12.880651 46.937812,13.942641 49.488812,15.172651 C 52.040812,16.402651 54.536812,17.776651 56.975812,19.283641 C 59.415812,20.793651 61.743802,22.444651 63.958802,24.234651 C 66.174802,26.025641 68.108802,27.940651 69.763802,29.982651 C 71.418802,32.025651 72.736802,34.179641 73.717802,36.445641 C 74.698802,38.711651 75.190802,41.076641 75.190802,43.537641 C 75.190802,46.055641 74.699802,48.193641 73.717802,49.957641 C 72.735802,51.721641 71.446802,53.217641 69.847802,54.445641 C 68.248812,55.676641 66.440802,56.656641 64.420802,57.383631 C 62.401802,58.111641 60.340812,58.685641 58.236812,59.104641 C 56.133812,59.524641 54.072812,59.790641 52.053812,59.902631 C 50.033812,60.013641 48.267812,60.069631 46.753812,60.069631 C 45.687812,60.069631 44.411812,59.971631 42.925812,59.776631 C 41.439812,59.579641 40.023812,59.061641 38.676812,58.222631 L 38.592812,40.096641 C 38.929812,39.985641 39.238812,39.901641 39.517812,39.844651 C 39.798812,39.787651 40.218812,39.760641 40.780812,39.760641 C 42.463812,39.760641 44.229812,39.901641 46.080812,40.180641 C 47.932812,40.459641 49.684812,40.809641 51.338812,41.229641 C 52.993812,41.649641 54.438812,42.110641 55.671812,42.613641 C 56.905812,43.118651 57.746812,43.620641 58.195812,44.126641 C 57.914812,44.687641 57.395812,45.272641 56.638812,45.890641 C 55.880812,46.503641 55.194812,47.173641 54.576812,47.904641 C 55.024812,48.240641 55.628812,48.508641 56.386812,48.703641 C 57.143812,48.896641 57.774812,48.996641 58.279812,48.996641 C 59.008812,48.996641 59.709812,48.787641 60.383802,48.366641 C 61.056812,47.946641 61.672812,47.441641 62.234802,46.855641 C 62.795802,46.267641 63.243802,45.638641 63.580802,44.964641 C 63.917802,44.292651 64.085802,43.704641 64.085802,43.202641 C 64.085802,41.805641 63.636802,40.571641 62.739802,39.511641 C 61.842802,38.448641 60.663812,37.552641 59.206812,36.823651 C 57.747812,36.096641 56.120812,35.495641 54.326812,35.018641 C 52.531812,34.543641 50.751812,34.180641 48.983812,33.928641 C 47.216812,33.676651 45.547812,33.494641 43.977812,33.381641 C 42.407812,33.271641 41.145812,33.213641 40.192812,33.213641 L 39.014812,33.213641 C 38.902812,32.264641 38.817812,31.354641 38.761812,30.484651 L 38.593812,27.925641 C 38.537812,26.974651 38.453812,26.075641 38.340812,25.237651 C 38.229812,24.396641 38.046812,23.630651 37.793812,22.929651 C 37.541812,22.229651 37.190812,21.543651 36.742812,20.871651 C 36.293812,20.199651 35.676812,19.557651 34.890812,18.940641 C 34.386812,19.387651 33.964812,20.184641 33.628812,21.334641 C 33.292812,22.480651 33.011812,23.697641 32.786812,24.981651 C 32.562812,26.268651 32.380812,27.444641 32.239812,28.506651 C 32.099812,29.569641 32.029812,30.212641 32.029812,30.437641 L 31.861812,33.875641 C 27.711812,34.604641 24.290812,35.416641 21.597812,36.312641 C 18.905812,37.208641 16.576812,38.381641 14.614822,39.834641 C 12.763822,41.121641 11.839822,42.408641 11.839822,43.693641 C 11.839822,44.981641 12.287822,46.268641 13.185822,47.554641 C 14.082822,48.841641 15.007822,49.988641 15.961822,50.993641 C 17.083812,52.280641 18.878812,53.847641 21.345812,55.693641 C 23.814812,57.540641 26.982812,59.583641 30.852812,61.818631 C 31.132812,63.104641 31.414812,64.323641 31.693812,65.468641 C 31.974812,66.614641 32.423812,67.578631 33.040812,68.364641 L 34.975812,68.532631 C 35.537812,68.532631 36.041812,68.505631 36.490812,68.446641 C 36.938812,68.391631 37.416812,68.306641 37.921812,68.194631 L 38.552812,66.054631 C 38.693812,65.578641 38.818812,65.116631 38.931812,64.670641 C 40.837812,64.949631 42.870812,65.230631 45.031812,65.509641 C 47.189812,65.789631 49.251812,65.929641 51.214812,65.929641 C 55.027812,65.929641 58.828812,65.467631 62.613802,64.543641 C 66.399802,63.619641 69.806802,62.222631 72.836802,60.348641 C 75.864802,58.474641 78.318802,56.123631 80.197802,53.298641 C 82.076802,50.473641 83.015802,47.156641 83.015802,43.355641 C 83.015802,40.501641 82.369802,37.704651 81.079802,34.961641 C 79.790802,32.221651 78.079802,29.605641 75.947802,27.115641 C 73.815802,24.625651 71.404802,22.289651 68.712802,20.106641 C 66.021802,17.923651 63.273802,15.953651 60.468812,14.188651 C 57.663812,12.426651 54.915812,10.887651 52.223812,9.5746507 C 49.531812,8.2616507 47.148812,7.2136507 45.072812,6.4286507 C 40.922812,4.9736407 36.590812,3.7296507 32.074812,2.6956507 C 27.559812,1.6616507 23.394812,1.1426507 19.581812,1.1426507 C 18.628812,1.1426507 17.478812,1.1576507 16.132812,1.1836507 C 14.786822,1.2116507 13.399822,1.3106507 11.968822,1.4776507 C 10.537821,1.6456507 9.1088211,1.9116507 7.6778211,2.2756507 C 6.2468211,2.6376507 4.9858211,3.1166507 3.8918211,3.7046507 C 2.7978211,4.2906507 1.9018211,5.0306407 1.2008211,5.9286507 C 0.49982112,6.8246407 0.14882112,7.9136507 0.14882112,9.2006507 C 0.14882112,9.7596407 0.58382112,10.124651 1.4528211,10.290651 C 2.3218211,10.458651 3.2338211,10.542641 4.1868211,10.542641 C 4.6358211,10.542641 5.0418211,10.527651 5.4068211,10.501641 C 5.7718211,10.486651 6.0378211,10.476651 6.2058211,10.476651 L 6.2058211,10.476651 z M 31.529812,40.016641 L 30.772812,56.296641 C 28.809812,55.850631 26.888812,55.178641 25.009812,54.280631 C 23.130812,53.385641 21.517812,52.380641 20.171812,51.259641 C 19.554812,50.813641 18.896812,50.311641 18.194812,49.749641 C 17.492812,49.189641 16.819812,48.615641 16.174812,48.027641 C 15.529812,47.439641 14.996822,46.839641 14.576822,46.222641 C 14.154822,45.607641 13.944822,45.021641 13.944822,44.459641 C 13.944822,43.731641 14.477822,43.131641 15.543822,42.653641 C 16.609812,42.178641 17.955812,41.773641 19.581812,41.436641 C 21.208812,41.100651 23.002812,40.833641 24.966812,40.639651 C 26.929812,40.444641 28.808812,40.233641 30.603812,40.009641 L 31.529812,40.009641 L 31.529812,40.016641 z "
       id="path9"
       style="fill:#098edb" />
    <path
       d="M 103.56579,10.309651 C 103.2868,9.3596507 102.4868,8.5766507 101.16979,7.9586507 C 99.851792,7.3436507 98.266792,7.0366407 96.415792,7.0366407 C 94.395802,7.0366407 92.419802,7.4566507 90.483792,8.2946507 C 88.548802,9.1346507 86.809802,10.183641 85.267802,11.440651 C 83.725802,12.697651 82.477802,14.085641 81.524802,15.590651 C 80.570802,17.104651 80.093802,18.559651 80.093802,19.955641 C 80.093802,20.906641 80.303802,21.773641 80.724802,22.559651 C 81.145802,23.345651 81.663802,24.154641 82.281802,24.992651 C 82.225802,25.218641 82.169802,25.456641 82.112802,25.708641 C 82.056802,25.960641 82.028802,26.196641 82.028802,26.421641 C 82.140802,27.372641 82.407802,28.185651 82.828802,28.855641 C 83.249802,29.527641 83.682802,29.918641 84.132802,30.031651 C 84.749802,29.918641 85.212802,29.668651 85.521802,29.275641 C 85.830802,28.882651 86.208802,28.408651 86.656802,27.849641 C 87.441802,28.128651 88.311802,28.324641 89.264792,28.435641 C 90.218792,28.548651 91.115792,28.603641 91.956802,28.603641 C 93.358802,28.603641 95.013802,28.185651 96.920792,27.345651 C 98.827802,26.505651 100.6498,25.429651 102.38879,24.115651 C 104.1278,22.801641 105.59979,21.316651 106.8058,19.666641 C 108.0118,18.019641 108.6158,16.381651 108.6158,14.758651 C 108.6158,13.977651 108.4328,13.306641 108.0688,12.744651 C 107.70379,12.184651 107.26879,11.709651 106.7638,11.317651 C 106.2598,10.925641 105.7408,10.644641 105.2068,10.476651 C 104.67479,10.309651 104.23979,10.226651 103.9028,10.226651 C 103.79079,10.226651 103.7198,10.240641 103.69279,10.267651 C 103.66379,10.294651 103.6218,10.309651 103.56579,10.309651 L 103.56579,10.309651 z M 88.927802,33.386651 C 88.648802,33.386651 88.479802,33.583641 88.423802,33.975641 C 87.862802,38.226651 87.497802,41.513641 87.329802,43.835641 C 87.161802,46.154641 87.048802,47.626641 86.992802,48.239641 C 86.936792,49.358641 86.893802,50.239641 86.866802,50.884641 C 86.838802,51.529641 86.809802,52.128641 86.782802,52.689641 C 86.754802,53.248641 86.740802,53.863641 86.740802,54.537631 L 86.740802,57.055641 C 86.740802,57.280641 86.782802,57.616641 86.866802,58.062641 C 86.950802,58.508631 87.062802,58.972641 87.202802,59.447641 C 87.343802,59.925641 87.511802,60.372641 87.708802,60.792641 C 87.903802,61.212641 88.142802,61.448641 88.423802,61.505641 C 88.759802,61.616641 89.152802,61.731641 89.601802,61.841641 C 90.049802,61.952641 90.442792,62.009641 90.779802,62.009641 C 91.844802,62.009641 92.546792,61.689641 92.883802,61.044631 C 93.219802,60.399631 93.387802,59.742641 93.387802,59.069641 C 93.387802,55.715631 93.276802,52.288641 93.051792,48.792641 C 92.826802,45.294641 92.658802,41.841641 92.546792,38.427641 C 92.434802,36.806641 92.182802,35.573641 91.789802,34.736651 C 91.396792,33.899641 90.441802,33.443641 88.927802,33.386651 L 88.927802,33.386651 z M 89.263802,22.982651 C 90.104802,21.806641 91.043802,20.659651 92.081792,19.541651 C 93.119802,18.422641 94.198802,17.414651 95.320802,16.520651 C 96.441802,15.624651 97.591802,14.912641 98.769802,14.378641 C 99.947802,13.848641 101.1538,13.581651 102.3868,13.581651 C 103.50879,13.581651 104.1548,13.775641 104.3228,14.169651 C 104.49079,14.562641 104.5748,15.065651 104.5748,15.679641 C 104.5748,16.966651 104.11179,18.099651 103.18679,19.079641 C 102.2608,20.058641 101.12479,20.882651 99.779802,21.555651 C 98.433792,22.226641 97.031802,22.743641 95.572802,23.107641 C 94.114802,23.470641 92.852802,23.652651 91.787802,23.652651 L 89.935802,23.652651 C 89.824802,23.652651 89.683802,23.569651 89.515802,23.400641 C 89.348802,23.232651 89.263802,23.093651 89.263802,22.982651 L 89.263802,22.982651 z M 84.216802,19.961651 C 84.384802,18.338651 85.085802,16.842651 86.320802,15.473651 C 87.554802,14.103651 89.236802,13.194651 91.368802,12.744651 C 91.480802,12.854651 91.536802,12.994651 91.536802,13.164651 L 91.536802,13.246651 C 91.031802,13.693641 90.457802,14.226651 89.811802,14.842651 C 89.165802,15.459641 88.535802,16.086641 87.918802,16.732651 L 86.192802,18.538651 C 85.660792,19.099641 85.254802,19.571651 84.973802,19.966651 C 84.861802,20.075651 84.720802,20.134641 84.552802,20.134641 C 84.440802,20.128651 84.328802,20.072651 84.216802,19.961651 L 84.216802,19.961651 z "
       id="path11"
       style="fill:#ffffff" />
    <path
       d="M 101.6568,40.773641 C 102.1048,40.493641 102.66579,40.269641 103.3398,40.101651 C 104.0128,39.933641 105.05079,39.737641 106.45279,39.513641 C 107.12479,39.402641 108.10679,39.288641 109.39579,39.178641 C 110.6868,39.066641 112.04579,38.954641 113.47679,38.841641 C 114.90779,38.730641 116.29479,38.632641 117.64079,38.548651 C 118.98779,38.464641 120.02479,38.364651 120.75379,38.255641 C 121.08979,38.196641 121.55279,38.128651 122.14179,38.044641 C 122.73079,37.960641 123.19379,37.860641 123.53079,37.751641 C 123.97879,37.583641 124.38579,37.345651 124.75079,37.038641 C 125.11479,36.727641 125.32479,36.322651 125.38179,35.817641 C 125.38179,35.372651 125.2978,35.063641 125.12879,34.895651 C 124.96079,34.727641 124.73579,34.616641 124.45579,34.559641 C 123.05379,34.223641 121.44079,33.902641 119.6188,33.592641 C 117.79579,33.283641 115.81779,33.131641 113.6868,33.131641 C 113.57579,33.131641 113.0838,33.158651 112.21379,33.215651 C 111.34479,33.273641 110.2788,33.399651 109.01779,33.592641 C 107.7548,33.789641 106.4228,34.070641 105.02179,34.434651 C 103.61979,34.795641 102.3158,35.288641 101.1098,35.901641 C 99.903802,36.518641 98.907802,37.299641 98.122802,38.255641 C 97.337802,39.206641 96.944802,40.321651 96.944802,41.609641 C 96.944802,42.505641 97.057802,43.248641 97.281802,43.836641 C 97.506802,44.422641 97.997792,44.899641 98.754802,45.262641 C 99.511802,45.627641 100.61879,45.893641 102.07779,46.059641 C 103.5358,46.227641 105.47079,46.340641 107.88279,46.395641 C 108.77979,46.395641 109.92979,46.494641 111.33179,46.690641 C 112.73379,46.885641 114.10779,47.152641 115.45479,47.487641 C 116.80079,47.822641 117.94979,48.257641 118.90379,48.788641 C 119.85679,49.319641 120.33379,49.948641 120.33379,50.677641 C 120.33379,51.460641 119.7168,52.130641 118.48279,52.693641 C 117.24879,53.254641 115.86079,53.714641 114.31779,54.078641 C 112.77579,54.442641 111.2898,54.709641 109.8588,54.877641 C 108.4288,55.045641 107.51679,55.129641 107.12479,55.129641 C 106.3398,55.129641 105.55479,55.113641 104.76979,55.086641 C 103.9848,55.059631 103.25579,54.986641 102.5818,54.877641 C 101.9098,54.764641 101.3628,54.555641 100.94079,54.246641 C 100.52079,53.937641 100.3098,53.533641 100.3098,53.028641 C 100.3098,52.078641 100.59079,51.491641 101.1518,51.265641 C 101.7128,51.040641 102.30179,50.929631 102.91879,50.929631 C 103.7598,50.929631 104.5878,51.040641 105.3998,51.265641 C 106.21279,51.491641 107.0128,51.728631 107.79779,51.980641 C 108.5828,52.231641 109.32579,52.455641 110.0268,52.650641 C 110.7278,52.845631 111.3878,52.945641 112.00479,52.945641 C 113.06979,52.945641 114.05279,52.750641 114.94879,52.358641 C 115.84679,51.964641 116.4638,51.601641 116.80079,51.263641 C 116.9118,51.154641 116.9688,50.986631 116.9688,50.761641 C 116.9688,50.650641 116.9118,50.536641 116.80079,50.425641 C 115.06279,49.529641 113.22479,48.872641 111.2898,48.452641 C 109.35479,48.032641 107.57379,47.822641 105.94679,47.822641 C 105.1058,47.822641 104.2368,47.907641 103.3398,48.075641 C 102.4428,48.243641 101.6148,48.522641 100.8578,48.913641 C 100.10079,49.308641 99.484792,49.837641 99.006802,50.509631 C 98.529802,51.182641 98.291802,52.021641 98.291802,53.028641 C 98.291802,53.867641 98.655802,54.761631 99.385802,55.716641 C 100.1148,56.667641 101.09579,57.532641 102.3298,58.318641 C 103.5638,59.099631 104.99379,59.745641 106.62079,60.248641 C 108.24679,60.752641 109.95779,61.004641 111.75279,61.004641 C 112.42579,61.004641 113.4628,60.936641 114.8648,60.795631 C 116.26679,60.654641 117.68279,60.264641 119.11379,59.618641 C 120.54379,58.974641 121.80579,58.023631 122.89979,56.765641 C 123.99279,55.505641 124.53979,53.730631 124.53979,51.435641 C 124.53979,49.478641 124.06279,47.954641 123.10979,46.863641 C 122.15579,45.772641 120.97879,44.961641 119.57579,44.427641 C 118.17479,43.898641 116.63279,43.561641 114.94879,43.421641 L 110.32179,43.044641 C 108.6398,42.931641 107.1808,42.763641 105.94679,42.538641 C 104.7138,42.313641 103.2828,41.893641 101.6568,41.278641 C 101.54479,41.278641 101.48779,41.223641 101.48779,41.110641 C 101.48779,40.997641 101.54379,40.882641 101.6568,40.773641 L 101.6568,40.773641 z "
       id="path13"
       style="fill:#ffffff" />
    <path
       d="M 142.70978,30.955641 L 142.96179,31.963641 C 143.46778,33.920641 143.94279,35.600651 144.39378,36.996641 C 144.84279,38.394641 145.23479,39.725641 145.57178,40.983641 C 145.90978,42.240641 146.17578,43.555641 146.37078,44.925641 C 146.56678,46.296641 146.66579,47.933641 146.66579,49.835641 C 146.66579,50.562631 146.65178,51.106641 146.62479,51.472641 C 146.59779,51.835641 146.44078,52.017641 146.16179,52.017641 C 146.21978,52.017641 146.02078,51.794641 145.57178,51.346641 C 144.45078,49.947641 143.31378,48.325641 142.16579,46.478641 C 141.01778,44.632641 139.90779,42.884641 138.84379,41.234641 C 137.77879,39.584641 136.78179,38.185651 135.85779,37.039651 C 134.93179,35.893641 134.16179,35.318641 133.54479,35.318641 C 132.92779,35.318641 132.36679,35.711641 131.86179,36.492641 C 131.35679,37.275641 130.88079,38.282641 130.43079,39.513641 C 129.98279,40.742641 129.58979,42.101641 129.25279,43.583641 C 128.91679,45.064641 128.63579,46.548641 128.41179,48.028641 C 128.18679,49.511641 128.01879,50.882641 127.90679,52.141641 C 127.79479,53.399641 127.73779,54.393641 127.73779,55.120631 C 127.73779,55.622641 127.77979,56.251641 127.86479,57.007641 C 127.94879,57.765641 128.11679,58.490641 128.36979,59.192641 C 128.62179,59.890631 128.95879,60.493631 129.37879,60.998641 C 129.79979,61.502641 130.34679,61.754641 131.01979,61.754641 C 131.46879,61.754641 131.84679,61.600641 132.15579,61.293641 C 132.46478,60.982631 132.70279,60.618641 132.87179,60.198641 C 133.03979,59.780631 133.17979,59.346641 133.29179,58.898641 C 133.40379,58.451631 133.48779,58.085641 133.54479,57.806641 C 133.65679,57.136641 133.75479,56.169641 133.83878,54.911641 C 133.92279,53.650641 133.99279,52.350641 134.04979,51.007641 C 134.10579,49.665641 134.16179,48.462641 134.21778,47.400641 C 134.27379,46.337641 134.32979,45.668641 134.38579,45.387641 C 134.55479,44.772641 134.75079,44.462641 134.97479,44.462641 C 135.14379,44.462641 135.43779,44.856641 135.85879,45.639641 C 136.27979,46.421641 136.76978,47.387641 137.33079,48.535641 C 137.89279,49.681641 138.50979,50.926641 139.18279,52.267641 C 139.85578,53.610641 140.57079,54.855631 141.32879,56.001641 C 142.08679,57.147641 142.88679,58.111641 143.72579,58.897641 C 144.56679,59.679641 145.37879,60.072641 146.16379,60.072641 C 147.17478,60.072641 148.08378,59.721641 148.89679,59.022631 C 149.70978,58.324631 150.39679,57.427641 150.95879,56.337641 C 151.52179,55.245641 151.93978,54.044641 152.22279,52.729641 C 152.50178,51.416641 152.64379,50.113641 152.64379,48.826641 C 152.64379,45.918641 152.27979,43.232651 151.54979,40.771641 C 150.82079,38.309641 149.96278,36.196641 148.98378,34.435641 C 148.00479,32.671641 146.99478,31.300641 145.95779,30.323641 C 144.91879,29.344641 144.11979,28.853651 143.55979,28.853651 C 143.16678,28.853651 142.92879,29.064641 142.84478,29.482641 C 142.76079,29.902641 142.71778,30.281641 142.71778,30.616641 L 142.71778,30.953651 L 142.71179,30.953651 L 142.71179,30.955641 L 142.70978,30.955641 z "
       id="path15"
       style="fill:#ffffff" />
    <path
       d="M 175.37778,56.548641 C 175.37778,55.987641 175.15078,55.430631 174.70378,54.870641 C 174.25478,54.309641 173.77778,54.028641 173.27178,54.028641 C 172.82478,54.028641 172.36178,54.046641 171.88378,54.071641 C 171.40578,54.098641 170.94578,54.141641 170.49378,54.196641 C 167.80278,54.476631 165.68278,54.770641 164.14078,55.079631 C 162.59879,55.388641 161.71478,55.542641 161.49178,55.542641 C 161.93978,54.591641 162.33379,53.640631 162.66978,52.688641 C 163.00778,51.736641 163.28678,50.813641 163.51278,49.917641 C 163.62278,49.691641 163.79078,49.583641 164.01779,49.583641 C 166.14878,49.583641 168.07078,49.554641 169.78178,49.497641 C 171.49278,49.440641 172.74078,49.387641 173.52378,49.331641 C 173.91878,49.272641 174.16978,49.007641 174.28378,48.532641 C 174.39378,48.056641 174.45178,47.650641 174.45178,47.314641 C 174.45178,46.920641 174.42278,46.489641 174.36778,46.013641 C 174.30978,45.537641 174.17078,45.159641 173.94578,44.879641 L 172.76678,44.711641 L 166.53878,44.711641 C 166.26078,44.711641 166.06178,44.612641 165.95078,44.416641 C 165.83979,44.222641 165.78279,44.039641 165.78279,43.871641 C 165.78279,42.808651 165.90778,41.998641 166.16179,41.436641 C 166.41378,40.876641 166.62279,40.514641 166.79278,40.346641 C 167.07178,40.288641 167.49178,40.262641 168.05578,40.262641 C 168.61778,40.262641 169.11878,40.247641 169.57078,40.219641 C 170.01878,40.192641 170.46678,40.178641 170.91878,40.178641 C 171.36578,40.178641 171.89778,40.163641 172.51778,40.136641 C 173.13378,40.108641 173.89178,40.067641 174.78878,40.009641 C 175.18378,40.009641 175.64378,39.940641 176.17878,39.798641 C 176.71078,39.659641 177.20078,39.505641 177.65178,39.339641 C 178.09978,39.171641 178.49478,38.987641 178.83078,38.792641 C 179.16677,38.598641 179.33678,38.387641 179.33678,38.163641 C 179.33678,37.434641 178.98378,36.681651 178.28378,35.894651 C 177.58278,35.111651 177.03578,34.497641 176.64178,34.047651 C 175.74578,33.769641 175.04078,33.601641 174.53778,33.543641 C 174.03178,33.487641 173.58478,33.459641 173.19078,33.459641 C 171.45178,33.459641 169.88078,33.543641 168.47978,33.711641 C 167.07878,33.879641 165.80078,34.063651 164.65178,34.259651 L 161.45578,34.803641 C 160.47578,34.972651 159.53378,35.082651 158.63878,35.140651 C 157.90979,35.195641 157.36479,35.308641 156.99679,35.476641 C 156.63178,35.644641 156.44978,35.952641 156.44978,36.398641 C 156.44978,36.845641 156.60278,37.252641 156.91278,37.616641 C 157.22278,37.980641 157.61378,38.314641 158.09078,38.624641 C 158.56878,38.932641 159.08678,39.212641 159.64878,39.464641 L 161.24979,40.178641 L 159.22878,44.792641 C 158.83378,44.850641 158.45778,44.945641 158.09278,45.085641 C 157.72878,45.227641 157.37679,45.352641 157.03878,45.464641 C 156.92878,45.800641 156.82979,46.079641 156.74578,46.303641 C 156.66178,46.527641 156.61878,46.807641 156.61878,47.144641 C 156.61878,47.591641 156.70278,47.955641 156.87079,48.235641 C 157.03878,48.514641 157.18178,48.879641 157.29278,49.326641 C 156.84478,50.613641 156.38079,51.888641 155.90278,53.144641 C 155.42478,54.400641 155.18779,55.507631 155.18779,56.457631 C 155.18779,58.250641 155.72079,59.871641 156.78678,61.326641 C 157.85178,62.780631 159.56278,63.508641 161.91978,63.508641 C 163.32078,63.508641 164.66778,63.299641 165.95678,62.879641 C 167.24778,62.459641 168.46778,61.941631 169.61678,61.326641 C 170.76578,60.711641 171.79078,60.082631 172.68678,59.436641 C 173.58278,58.792641 174.31378,58.248641 174.87478,57.798641 C 175.20778,57.586641 175.37778,57.166641 175.37778,56.548641 L 175.37778,56.548641 z "
       id="path17"
       style="fill:#ffffff" />
    <path
       d="M 181.49678,85.753631 C 182.05978,83.515631 182.53578,81.516631 182.92878,79.753631 C 183.32178,77.988631 183.72778,76.270631 184.14877,74.591631 C 184.56978,72.913641 185.04577,71.163631 185.57977,69.347641 C 186.11278,67.528641 186.80178,65.417641 187.64277,63.009631 C 187.97978,62.954641 188.30178,62.911631 188.61078,62.884641 C 188.92078,62.858631 189.21478,62.841631 189.49678,62.841631 C 190.89577,62.841631 192.63778,62.423641 194.71177,61.583641 C 196.78777,60.745641 198.77677,59.568631 200.68578,58.059631 C 202.59378,56.548641 204.21977,54.757631 205.56577,52.689641 C 206.91377,50.621641 207.58577,48.353641 207.58577,45.892641 C 207.58577,45.052641 207.50177,44.044641 207.33377,42.871641 C 207.16577,41.695651 206.88678,40.563641 206.49178,39.475641 C 206.09877,38.383641 205.53877,37.447651 204.80877,36.662641 C 204.07977,35.881641 203.18178,35.487641 202.11678,35.487641 C 201.05378,35.487641 199.77477,36.047641 198.28878,37.166651 C 196.80478,38.283651 195.27377,39.644641 193.70477,41.235641 C 192.13477,42.830641 190.61877,44.507641 189.16178,46.270641 C 187.70278,48.032641 186.47078,49.583641 185.45878,50.928641 C 185.29078,51.151641 185.18078,51.262641 185.12277,51.262641 L 184.95478,51.262641 C 184.84478,51.151641 184.77178,50.995641 184.74377,50.800641 C 184.71678,50.606641 184.70277,50.421641 184.70277,50.255641 C 184.70277,48.743641 185.08178,47.206641 185.83778,45.641641 C 186.59678,44.074641 187.31277,42.757641 187.98378,41.696641 L 190.75878,37.502641 C 191.32078,36.662641 191.60077,35.821641 191.60077,34.983641 C 191.60077,34.200641 191.53078,33.639651 191.39078,33.303641 C 191.24878,32.968641 190.87177,32.743641 190.25478,32.632651 C 189.80677,32.689651 189.03378,33.303641 187.94178,34.479651 C 186.84978,35.655641 185.72578,37.151641 184.57778,38.968651 C 183.42978,40.786651 182.40278,42.816641 181.50578,45.053641 C 180.60978,47.290641 180.15978,49.499641 180.15978,51.682641 C 180.15978,52.690631 180.30078,53.710641 180.58178,54.745631 C 180.86078,55.779641 181.22778,56.800631 181.67578,57.808641 C 180.49778,60.607631 179.51778,63.249631 178.73278,65.740631 C 177.94777,68.231631 177.33278,70.438641 176.87878,72.371641 C 176.43278,74.301631 176.10778,75.908631 175.91178,77.195631 C 175.71678,78.481631 175.61678,79.320631 175.61678,79.715631 C 175.61678,81.504631 176.13778,83.028641 177.17378,84.287631 C 178.21078,85.545631 179.57078,86.260631 181.25378,86.428641 L 181.49678,85.753631 L 181.49678,85.753631 z M 191.84577,55.627641 C 192.01378,55.291631 192.30878,54.689641 192.72878,53.821641 C 193.14977,52.955631 193.62478,52.031641 194.16077,51.052641 C 194.69177,50.073641 195.19777,49.163641 195.67578,48.323641 C 196.15378,47.483641 196.50278,46.895641 196.72778,46.560641 C 197.06477,46.166641 197.48578,45.664641 197.99178,45.047641 C 198.49778,44.434641 199.02877,43.846641 199.58978,43.285651 C 200.15278,42.724641 200.71277,42.234641 201.27477,41.815641 C 201.83678,41.395641 202.28377,41.185641 202.62177,41.185641 C 203.18377,41.185641 203.50477,41.464641 203.58878,42.025641 C 203.67277,42.586641 203.71677,43.088641 203.71677,43.537641 C 203.71677,46.949641 202.50977,49.689641 200.09878,51.763641 C 197.51078,54.003631 194.76178,55.291631 191.84577,55.627641 L 191.84577,55.627641 z "
       id="path19"
       style="fill:#ffffff" />
    <path
       d="M 60.649812,78.634631 C 60.649812,79.101631 60.493812,79.604631 60.181812,80.147631 C 59.869812,80.689631 59.383812,81.216631 58.723812,81.732631 C 58.062812,82.248631 57.220812,82.668631 56.198812,82.987641 C 55.176812,83.306631 53.987812,83.466631 52.634812,83.466631 C 51.606812,83.466631 50.674812,83.395641 49.839812,83.253631 C 49.005812,83.109631 48.239812,82.886631 47.544812,82.579631 C 46.849812,82.270641 46.192812,81.800631 45.575812,81.165641 C 45.107812,80.860631 44.690812,80.431641 44.326812,79.870631 C 43.962812,79.308631 43.689812,78.718631 43.511812,78.093631 C 43.331812,77.466631 43.241812,76.800631 43.241812,76.091631 C 43.241812,74.945631 43.467812,73.921641 43.918812,73.018631 C 44.370812,72.116631 45.021812,71.339641 45.870812,70.691641 C 46.720812,70.043641 47.720812,69.546641 48.868812,69.209631 C 50.016812,68.866641 51.237812,68.697641 52.530812,68.697641 C 54.109812,68.697641 55.516812,68.928631 56.751812,69.392631 C 57.985812,69.855641 58.936812,70.433631 59.601812,71.122631 C 60.266802,71.811631 60.599812,72.470631 60.599812,73.089641 C 60.599812,73.466631 60.418812,73.796631 60.059812,74.083641 C 59.699812,74.370631 59.259812,74.512641 58.741812,74.512641 C 58.175812,74.512641 57.752812,74.415631 57.472812,74.222641 C 57.194812,74.027641 56.896812,73.710631 56.577812,73.269631 C 56.097812,72.608641 55.540812,72.117631 54.904812,71.794631 C 54.269812,71.474641 53.487812,71.314631 52.555812,71.314631 C 51.069812,71.314631 49.881812,71.732631 48.992812,72.567641 C 48.104812,73.405631 47.660812,74.610641 47.660812,76.186631 C 47.660812,77.251641 47.858812,78.130631 48.254812,78.819631 C 48.650812,79.508631 49.203812,80.018631 49.914812,80.350631 C 50.625812,80.682631 51.462812,80.850631 52.426812,80.850631 C 53.463812,80.850631 54.340812,80.660631 55.057812,80.282631 C 55.774812,79.904631 56.326812,79.324631 56.714812,78.543641 C 56.867812,78.201641 57.082812,77.897631 57.360812,77.631631 C 57.636812,77.365641 58.089812,77.234631 58.714812,77.234631 C 59.244812,77.234631 59.699812,77.374641 60.079812,77.643641 C 60.459812,77.912641 60.649812,78.243631 60.649812,78.634631 L 60.649812,78.634631 z "
       id="path21"
       style="fill:#ffffff" />
    <path
       d="M 68.187812,70.582641 L 68.187812,74.389641 L 75.922802,74.389641 L 75.922802,70.582641 C 75.922802,69.973641 76.119802,69.504631 76.516812,69.184641 C 76.911812,68.861641 77.434802,68.700631 78.086802,68.700631 C 78.741802,68.700631 79.272802,68.860641 79.679802,69.181631 C 80.085802,69.500631 80.289802,69.970641 80.289802,70.584631 L 80.289802,81.551631 C 80.289802,82.179631 80.082802,82.655631 79.670802,82.981631 C 79.258802,83.306631 78.731802,83.467631 78.086802,83.467631 C 77.424802,83.467631 76.898802,83.305641 76.508802,82.977631 C 76.117802,82.650631 75.922802,82.174631 75.922802,81.549631 L 75.922802,77.066631 L 68.187812,77.066631 L 68.187812,81.549631 C 68.187812,82.176641 67.981802,82.653641 67.569802,82.980631 C 67.157802,83.306631 66.629802,83.467631 65.985802,83.467631 C 65.323802,83.467631 64.797802,83.305641 64.407802,82.978631 C 64.017802,82.651631 63.821802,82.174631 63.821802,81.551631 L 63.821802,70.584631 C 63.821802,69.973641 64.012802,69.504631 64.397802,69.184641 C 64.782802,68.861641 65.311802,68.700631 65.985802,68.700631 C 66.639802,68.700631 67.171812,68.860641 67.577802,69.180641 C 67.983812,69.498631 68.187812,69.964631 68.187812,70.582641 L 68.187812,70.582641 z "
       id="path23"
       style="fill:#ffffff" />
    <path
       d="M 95.594802,81.602631 L 94.715792,79.898631 L 87.397802,79.898631 L 86.558802,81.560641 C 86.195802,82.280631 85.872792,82.778631 85.590802,83.053631 C 85.309802,83.327631 84.838802,83.466631 84.180802,83.466631 C 83.623802,83.466631 83.133802,83.319631 82.711802,83.022631 C 82.289802,82.728631 82.079802,82.384641 82.079802,81.996631 C 82.079802,81.784631 82.122802,81.578631 82.208802,81.375631 C 82.294802,81.172631 82.441802,80.881631 82.650802,80.500641 L 87.489802,71.461631 L 87.989802,70.521641 C 88.185802,70.152631 88.399802,69.838631 88.634802,69.583641 C 88.867802,69.326641 89.184802,69.114641 89.584802,68.948631 C 89.983802,68.781631 90.471802,68.698641 91.045802,68.698641 C 91.625802,68.698641 92.113802,68.781631 92.512802,68.947641 C 92.911802,69.113641 93.228802,69.322641 93.464802,69.574641 C 93.701802,69.827641 93.889802,70.079641 94.028802,70.328641 C 94.168792,70.576631 94.349802,70.919641 94.573802,71.350631 L 99.562792,80.418631 C 99.963802,81.127631 100.1648,81.647631 100.1648,81.978631 C 100.1648,82.357631 99.955802,82.699631 99.538792,83.006631 C 99.121802,83.313631 98.616792,83.467631 98.024802,83.467631 C 97.675792,83.467631 97.376802,83.420631 97.126802,83.326631 C 96.876802,83.234631 96.668802,83.111631 96.504792,82.959641 C 96.338802,82.806631 96.166792,82.569631 95.986802,82.254631 C 95.807792,81.938631 95.677792,81.721631 95.594802,81.602631 L 95.594802,81.602631 z M 88.489802,77.399631 L 93.600802,77.399631 L 91.020802,72.046631 L 88.489802,77.399631 L 88.489802,77.399631 z "
       id="path25"
       style="fill:#ffffff" />
    <path
       d="M 107.74879,70.509631 L 114.56979,78.569631 L 114.56979,70.488641 C 114.56979,69.912641 114.7508,69.467631 115.11079,69.159641 C 115.47079,68.851631 115.96379,68.697641 116.5858,68.697641 C 117.22379,68.697641 117.72579,68.851631 118.09179,69.159641 C 118.45779,69.469641 118.64079,69.912641 118.64079,70.488641 L 118.64079,81.436631 C 118.64079,82.790631 117.86279,83.466631 116.3038,83.466631 C 115.9208,83.466631 115.5788,83.427631 115.2768,83.347631 C 114.9748,83.267631 114.69079,83.139631 114.42279,82.964631 C 114.15679,82.788631 113.92879,82.605631 113.74079,82.411631 C 113.5528,82.217641 113.34279,81.999631 113.10979,81.749631 L 106.40279,73.689631 L 106.40279,81.651631 C 106.40279,82.233641 106.2098,82.680631 105.82479,82.995631 C 105.43779,83.308631 104.94379,83.466631 104.3418,83.466631 C 103.71379,83.466631 103.2138,83.308631 102.83979,82.992631 C 102.46579,82.679631 102.2798,82.230631 102.2798,81.652631 L 102.2798,70.915641 C 102.2798,70.436631 102.34779,70.076641 102.48579,69.833631 C 102.6798,69.479631 102.9898,69.201631 103.41479,68.999641 C 103.83879,68.796641 104.2988,68.694641 104.7918,68.694641 C 105.17579,68.694641 105.50679,68.741631 105.78479,68.835631 C 106.0628,68.930641 106.3048,69.052641 106.50879,69.206631 C 106.7118,69.357631 106.9108,69.548631 107.10879,69.770641 C 107.30379,69.998641 107.5178,70.244641 107.74879,70.509631 L 107.74879,70.509631 z "
       id="path27"
       style="fill:#ffffff" />
    <path
       d="M 127.54879,70.509631 L 134.36878,78.569631 L 134.36878,70.488641 C 134.36878,69.912641 134.54979,69.467631 134.91078,69.159641 C 135.27079,68.851631 135.76278,68.697641 136.38479,68.697641 C 137.02379,68.697641 137.52579,68.851631 137.89078,69.159641 C 138.25679,69.469641 138.43979,69.912641 138.43979,70.488641 L 138.43979,81.436631 C 138.43979,82.790631 137.66179,83.466631 136.10379,83.466631 C 135.72079,83.466631 135.37779,83.427631 135.07679,83.347631 C 134.77379,83.267631 134.48979,83.139631 134.22279,82.964631 C 133.95579,82.788631 133.72879,82.605631 133.54079,82.411631 C 133.35279,82.220631 133.14279,81.999631 132.90979,81.749631 L 126.20279,73.689631 L 126.20279,81.651631 C 126.20279,82.233641 126.00979,82.680631 125.62379,82.995631 C 125.23779,83.308631 124.74379,83.466631 124.14079,83.466631 C 123.51279,83.466631 123.01279,83.308631 122.63879,82.992631 C 122.26579,82.679631 122.07879,82.230631 122.07879,81.652631 L 122.07879,70.915641 C 122.07879,70.436631 122.14679,70.076641 122.2848,69.833631 C 122.47879,69.479631 122.78879,69.201631 123.21379,68.999641 C 123.63879,68.796641 124.09779,68.694641 124.59179,68.694641 C 124.97479,68.694641 125.30579,68.741631 125.58479,68.835631 C 125.86279,68.930641 126.10479,69.052641 126.30779,69.206631 C 126.51079,69.357631 126.71079,69.548631 126.90779,69.770641 C 127.10379,69.996631 127.31679,70.244641 127.54879,70.509631 L 127.54879,70.509631 z "
       id="path29"
       style="fill:#ffffff" />
    <path
       d="M 154.55678,71.471641 L 146.18879,71.471641 L 146.18879,74.525631 L 153.87379,74.525631 C 154.53178,74.525631 155.03179,74.639631 155.37379,74.867631 C 155.71679,75.096631 155.88779,75.391631 155.88779,75.754631 C 155.88779,76.129631 155.71878,76.436641 155.37978,76.670631 C 155.04379,76.905641 154.53978,77.024631 153.87379,77.024631 L 146.18879,77.024631 L 146.18879,80.613631 L 154.85378,80.613631 C 155.52979,80.613631 156.04679,80.735631 156.40678,80.976631 C 156.76479,81.214641 156.94379,81.533631 156.94379,81.919641 C 156.94379,82.311631 156.76378,82.622631 156.40478,82.865641 C 156.04578,83.107631 155.52778,83.228641 154.85378,83.228641 L 144.43778,83.228641 C 143.52779,83.228641 142.86579,83.072631 142.44779,82.761631 C 142.03179,82.451631 141.82279,81.963631 141.82279,81.302631 L 141.82279,70.838641 C 141.82279,70.407641 141.91478,70.052641 142.09679,69.765631 C 142.28178,69.476641 142.57078,69.266631 142.96579,69.133631 C 143.36079,69.000641 143.85279,68.932631 144.43778,68.932631 L 154.55678,68.932631 C 155.24278,68.932631 155.75779,69.049641 156.10879,69.284641 C 156.45978,69.517641 156.63379,69.819641 156.63379,70.188631 C 156.63379,70.574641 156.45678,70.883641 156.10678,71.120641 C 155.75678,71.354631 155.24079,71.471641 154.55678,71.471641 L 154.55678,71.471641 z "
       id="path31"
       style="fill:#ffffff" />
    <path
       d="M 162.99278,70.584631 L 162.99278,80.533641 L 170.49678,80.533641 C 171.18878,80.533641 171.72679,80.662631 172.11178,80.918631 C 172.49678,81.176631 172.68878,81.496631 172.68878,81.881631 C 172.68878,82.282641 172.49878,82.610631 172.11378,82.858631 C 171.72978,83.108631 171.19078,83.232641 170.49678,83.232641 L 161.24278,83.232641 C 160.33278,83.232641 159.66878,83.076631 159.25278,82.765631 C 158.83478,82.453641 158.62779,81.965631 158.62779,81.306631 L 158.62779,70.584631 C 158.62779,69.975631 158.82478,69.506641 159.22178,69.185631 C 159.61778,68.861641 160.14079,68.700631 160.79178,68.700631 C 161.44578,68.700631 161.97879,68.860641 162.38578,69.181631 C 162.78978,69.500631 162.99278,69.966641 162.99278,70.584631 L 162.99278,70.584631 z "
       id="path33"
       style="fill:#ffffff" />
  </g>
</svg>
