<svg width="230" height="71" viewBox="0 0 230 71" fill="none" xmlns="http://www.w3.org/2000/svg">
<path d="M113.951 70.9998V70.8845C114.066 70.7404 114.267 70.6539 114.439 70.6828C115.273 70.6539 116.078 70.6539 116.911 70.6828C117.083 70.6828 117.285 70.7404 117.4 70.8845V70.9998H113.951Z" fill="#D1EFFA"/>
<path d="M117.4 70.8841C116.25 70.8553 115.101 70.8553 113.951 70.8841C112.37 70.7976 110.79 70.74 109.209 70.6246C105.013 70.3076 100.846 69.6734 96.7649 68.7221C82.654 65.4358 70.2674 58.8345 59.4614 49.2353C58.4556 48.3417 57.5072 47.4192 56.53 46.4968C56.3001 46.295 56.0989 46.0067 55.984 45.7184C55.8115 45.3149 55.8978 44.8825 56.1852 44.5654C56.4725 44.2483 56.9324 44.133 57.3347 44.3059C57.5934 44.4212 57.852 44.5365 58.0819 44.6807C68.3993 51.0802 79.6651 55.7501 91.4769 58.5175C95.4429 59.4399 99.4377 60.1606 103.461 60.6795C109.238 61.4001 115.072 61.6596 120.877 61.4578C124.01 61.3713 127.114 61.083 130.217 60.6795C137.46 59.757 144.616 58.1139 151.542 55.8078C155.192 54.597 158.755 53.2134 162.233 51.5991C162.75 51.3108 163.382 51.2243 163.957 51.3685C164.906 51.5991 165.48 52.5792 165.251 53.5304C165.222 53.6458 165.164 53.7899 165.107 53.9052C164.877 54.3376 164.561 54.7123 164.158 55.0006C160.853 57.595 157.29 59.8723 153.525 61.7749C146.426 65.3782 138.839 67.9438 131.022 69.4139C126.51 70.2211 121.969 70.7111 117.4 70.8841Z" fill="#00A8E1"/>
<path d="M74.837 12.4526C75.5555 12.0202 76.3027 11.559 77.0787 11.1554C79.0904 10.1176 81.3321 9.59875 83.6025 9.71405C85.2406 9.80053 86.735 10.2618 87.8846 11.4725C88.9767 12.5967 89.379 13.9804 89.494 15.4794C89.5227 15.7965 89.5227 16.1136 89.5227 16.4595V31.3917C89.5227 32.6889 89.3503 32.8618 88.057 32.8618H84.5509C84.3209 32.8618 84.091 32.8618 83.8611 32.833C83.5162 32.8042 83.2289 32.5159 83.1714 32.17C83.1139 31.8529 83.1139 31.5358 83.1139 31.2187V17.872C83.1426 17.3243 83.0852 16.8054 82.9415 16.2865C82.7115 15.3929 81.9068 14.7587 80.9872 14.7011C79.2916 14.5858 77.596 14.9317 76.044 15.6523C75.8141 15.71 75.6704 15.9406 75.6992 16.1712V31.334C75.6992 31.6223 75.6992 31.8817 75.6417 32.17C75.6417 32.5736 75.3256 32.8618 74.9232 32.8618C74.4921 32.8907 74.061 32.8907 73.6012 32.8907H70.5549C69.4915 32.8907 69.2616 32.6312 69.2616 31.5646V17.9296C69.2616 17.4396 69.2329 16.9207 69.1179 16.4307C68.9167 15.4506 68.0833 14.7587 67.1061 14.7011C65.3818 14.5858 63.6287 14.9317 62.0768 15.6812C61.8469 15.7388 61.7032 15.9983 61.7607 16.2289V31.5935C61.7607 32.6601 61.5307 32.8907 60.4674 32.8907H56.6163C55.6105 32.8907 55.3518 32.6024 55.3518 31.6223V11.6166C55.3518 11.386 55.3805 11.1554 55.438 10.9248C55.553 10.5789 55.8978 10.3771 56.2427 10.3771H59.8351C60.3524 10.3771 60.6686 10.6942 60.841 11.1842C60.9847 11.5878 61.0709 11.9625 61.2146 12.3949C61.502 12.3949 61.6744 12.1931 61.8756 12.0778C63.4563 11.0977 65.1231 10.2618 66.9912 9.91584C68.4282 9.62757 69.8651 9.62757 71.3021 9.91584C72.6528 10.2041 73.8599 11.0113 74.6358 12.1643C74.6933 12.2508 74.7508 12.3085 74.8083 12.3661C74.7795 12.3949 74.8083 12.3949 74.837 12.4526Z" fill="#00A8E1"/>
<path d="M134.413 26.8088C134.586 26.2322 134.758 25.6845 134.931 25.108C136.253 20.6399 137.575 16.2006 138.897 11.7324L139.069 11.2135C139.213 10.6947 139.701 10.3776 140.219 10.3776H144.587C145.679 10.3776 145.909 10.6947 145.535 11.7324L143.811 16.3159C141.885 21.3317 139.96 26.3764 138.034 31.3922C137.977 31.5652 137.891 31.7381 137.833 31.9111C137.632 32.5164 137.029 32.92 136.396 32.8623C135.132 32.8335 133.867 32.8335 132.603 32.8623C131.712 32.8912 131.194 32.4876 130.878 31.6805C130.16 29.7779 129.413 27.8465 128.694 25.944C126.97 21.4182 125.217 16.8924 123.492 12.3378C123.32 11.9919 123.205 11.5883 123.119 11.2135C123.033 10.637 123.234 10.3487 123.808 10.3487C125.447 10.3199 127.085 10.3487 128.694 10.3487C129.384 10.3487 129.7 10.81 129.872 11.4153C130.189 12.5107 130.505 13.635 130.85 14.7304C132.028 18.7373 133.177 22.773 134.356 26.7799C134.327 26.8088 134.356 26.8088 134.413 26.8088Z" fill="#232F3E"/>
<path d="M32.3604 13.5483C32.5615 13.4907 32.734 13.3753 32.8489 13.2024C33.3662 12.6835 33.9123 12.1935 34.4871 11.7322C35.9815 10.5792 37.8496 10.0026 39.7176 10.1468C40.4648 10.1756 40.7235 10.4062 40.781 11.1269C40.8384 12.107 40.8097 13.1159 40.8097 14.096C40.8384 14.4996 40.8097 14.8743 40.7522 15.2779C40.6373 15.7968 40.4361 15.9986 39.9188 16.0562C39.5164 16.0851 39.1428 16.0562 38.7405 16.0274C36.8149 15.8544 34.9469 16.2292 33.1363 16.8345C32.734 16.9787 32.734 17.2669 32.734 17.584V31.4208C32.734 31.6803 32.734 31.9109 32.7052 32.1703C32.6765 32.5451 32.3891 32.8333 32.0155 32.8333C31.8143 32.8622 31.5844 32.8622 31.3832 32.8622H27.6471C27.446 32.8622 27.216 32.8622 27.0149 32.8333C26.6413 32.8045 26.3539 32.4874 26.3251 32.1127C26.2964 31.882 26.2964 31.6514 26.2964 31.4208V11.8187C26.2964 10.4927 26.4401 10.3486 27.7621 10.3486H30.5211C31.2683 10.3486 31.6131 10.608 31.8143 11.3287C32.0155 12.0493 32.1879 12.77 32.3604 13.5483Z" fill="#00A8E1"/>
<path d="M166.803 42.7783C168.699 42.836 170.567 42.9513 172.407 43.4413C172.924 43.5855 173.413 43.7584 173.901 43.989C174.562 44.2485 174.993 44.8827 175.079 45.5745C175.194 46.3817 175.223 47.2176 175.166 48.0536C174.792 52.9829 173.269 57.7393 170.74 61.9769C169.82 63.5047 168.699 64.8884 167.406 66.0991C167.147 66.3585 166.831 66.5603 166.486 66.6756C165.94 66.8197 165.595 66.5315 165.567 65.9838C165.595 65.6955 165.653 65.4072 165.768 65.119C166.774 62.4093 167.751 59.7284 168.527 56.9322C168.987 55.4044 169.303 53.8477 169.504 52.2623C169.561 51.6858 169.59 51.1092 169.533 50.5327C169.504 49.5526 168.872 48.7166 167.923 48.4283C167.032 48.1401 166.113 47.9671 165.164 47.9095C162.52 47.7942 159.876 47.9095 157.261 48.2554L153.784 48.6878C153.41 48.7166 153.065 48.6878 152.864 48.3419C152.663 47.9959 152.749 47.65 152.95 47.3041C153.18 46.987 153.468 46.6987 153.812 46.497C155.939 44.9691 158.324 44.0467 160.854 43.4413C162.808 43.0378 164.791 42.836 166.803 42.7783Z" fill="#00A8E1"/>
<path d="M154.761 21.6193V31.9969C154.703 32.5735 154.445 32.8329 153.87 32.8617C152.318 32.8906 150.795 32.8906 149.243 32.8617C148.668 32.8617 148.409 32.5735 148.352 32.0258C148.323 31.8528 148.323 31.651 148.323 31.478V11.53C148.352 10.6364 148.582 10.377 149.473 10.377H153.611C154.502 10.377 154.761 10.6364 154.761 11.53V21.6193Z" fill="#232F3E"/>
<path d="M43.5688 21.5623V11.3289C43.5975 10.637 43.8562 10.3776 44.5459 10.3488C46.0404 10.3199 47.5348 10.3199 49.0292 10.3488C49.6902 10.3488 49.8914 10.5506 49.9489 11.2136C49.9776 11.473 49.9776 11.7036 49.9776 11.9631V31.1616C49.9776 31.4787 49.9489 31.7958 49.9201 32.1129C49.8914 32.4876 49.604 32.7471 49.2304 32.7759C49.058 32.8047 48.9143 32.8047 48.7418 32.8047H44.7471C44.6034 32.8047 44.4884 32.8047 44.3447 32.7759C43.9424 32.7471 43.5975 32.43 43.5688 32.0264C43.54 31.7958 43.54 31.5652 43.54 31.3346C43.5688 28.1348 43.5688 24.8486 43.5688 21.5623Z" fill="#00A8E1"/>
<path d="M46.9024 0.0279842C47.3622 -0.000842463 47.8221 0.0856374 48.2531 0.229771C49.8051 0.74865 50.6098 2.1035 50.4661 3.86193C50.3511 5.36091 49.2303 6.57163 47.7358 6.80224C47.1036 6.91755 46.4426 6.91755 45.8103 6.80224C44.1722 6.48515 42.9651 5.27443 43.0801 3.19891C43.2525 1.15222 44.6033 0.0279842 46.9024 0.0279842Z" fill="#00A8E1"/>
<path d="M151.571 0.0283639C152.146 -0.0292894 152.72 0.0860172 153.266 0.31663C154.387 0.74903 155.163 1.78679 155.221 2.99751C155.451 5.62073 153.697 6.94676 151.37 6.8891C151.053 6.8891 150.737 6.83145 150.421 6.7738C148.639 6.3414 147.72 4.95772 147.892 2.96868C148.036 1.38322 149.272 0.201324 150.967 0.0571905C151.168 0.0283639 151.37 -0.000462746 151.571 0.0283639Z" fill="#232F3E"/>
<path d="M22.043 19.1977C21.928 17.6987 21.5257 16.2286 20.9222 14.8737C19.7438 12.3946 17.9333 10.5785 15.1743 9.94435C12.013 9.25251 9.16781 9.94435 6.58128 11.8757C6.40885 12.0487 6.20767 12.1928 5.97776 12.3081C5.92028 12.2793 5.8628 12.2505 5.8628 12.2217C5.77658 11.9334 5.71911 11.6451 5.63289 11.3569C5.40297 10.6362 5.11558 10.3768 4.33962 10.3768C3.47745 10.3768 2.58653 10.4056 1.72435 10.3768C1.06335 10.3479 0.459828 10.4344 0 10.9533C0 21.0426 0 31.1608 0.0287392 41.2213C0.402349 41.8266 0.977134 41.9419 1.63814 41.9131C2.67275 41.8843 3.70736 41.9131 4.74197 41.9131C6.55254 41.9131 6.55254 41.9131 6.55254 40.1258V31.9102C6.55254 31.7085 6.46633 31.4778 6.6675 31.3049C8.10446 32.4291 9.85755 33.121 11.6681 33.2939C14.1972 33.5534 16.4963 32.9192 18.4218 31.1896C19.8301 29.8924 20.8647 28.2204 21.4107 26.3755C22.1867 24.0118 22.2442 21.6191 22.043 19.1977ZM15.1743 25.1648C14.9731 26.0584 14.5133 26.8656 13.8523 27.4709C13.1051 28.1051 12.1854 28.4799 11.2083 28.4799C9.7426 28.5664 8.30564 28.2493 7.01237 27.5574C6.69624 27.4133 6.49507 27.0962 6.5238 26.7503V21.5327C6.5238 19.8031 6.55254 18.0735 6.5238 16.3439C6.49507 15.9403 6.72498 15.5944 7.09859 15.4502C8.67925 14.7007 10.3174 14.3548 12.0417 14.7007C13.2488 14.8737 14.2834 15.652 14.772 16.7763C15.2031 17.6987 15.4617 18.7077 15.5192 19.7166C15.6916 21.5615 15.6916 23.4064 15.1743 25.1648Z" fill="#00A8E1"/>
<path d="M229.971 19.8319V19.9472C229.856 19.8319 229.799 19.6589 229.856 19.5148V19.2842C229.856 19.2842 229.856 19.2553 229.885 19.2553H229.856V18.9671H229.914C229.914 18.9382 229.885 18.9382 229.885 18.9094C229.828 18.3617 229.713 17.814 229.569 17.2951C228.506 13.49 226.12 10.9821 222.241 10.002C220.43 9.56959 218.591 9.51194 216.751 9.8002C212.872 10.3767 210.084 12.4523 208.733 16.1421C207.411 19.6589 207.44 23.5217 208.762 27.0385C209.911 30.2383 212.211 32.2562 215.516 33.0921C217.269 33.5245 219.108 33.6398 220.919 33.3804C226.954 32.6597 229.454 28.0763 229.856 24.0982H229.828V23.6946C229.799 23.5217 229.77 23.3775 229.943 23.2622V23.3199C229.943 23.2911 229.971 23.2334 230 23.2046V19.8895C230 19.8607 229.971 19.8607 229.971 19.8319ZM223.074 25.3089C222.902 25.9143 222.643 26.462 222.269 26.9809C221.637 27.8745 220.631 28.451 219.539 28.5375C218.993 28.5952 218.447 28.5952 217.901 28.4799C216.694 28.2493 215.688 27.4421 215.199 26.3179C214.768 25.4242 214.51 24.4441 214.423 23.464C214.28 21.7633 214.251 20.0625 214.653 18.3905C214.797 17.7275 215.084 17.0645 215.429 16.488C216.062 15.4502 217.154 14.7872 218.361 14.7007C218.907 14.6431 219.453 14.6431 219.999 14.7584C221.148 14.989 222.097 15.7385 222.614 16.8051C223.103 17.814 223.39 18.9382 223.448 20.0625C223.476 20.5814 223.505 21.1002 223.476 21.6191C223.563 22.8875 223.419 24.127 223.074 25.3089Z" fill="#232F3E"/>
<path d="M179.591 0.230469H175.597C174.505 0.230469 174.303 0.432255 174.303 1.52767V10.8675C174.303 11.0693 174.39 11.2711 174.246 11.4729C173.987 11.444 173.844 11.2711 173.642 11.1558C170.654 9.39734 167.521 9.08025 164.36 10.5504C162.147 11.5882 160.767 13.4619 159.876 15.6815C159.014 17.8147 158.813 20.0632 158.87 22.3405C158.87 24.4737 159.359 26.578 160.307 28.4806C161.399 30.5849 162.98 32.1992 165.279 32.891C168.412 33.8711 171.343 33.3811 174.016 31.3921C174.217 31.2768 174.332 31.075 174.591 31.0173C174.734 31.3344 174.849 31.6803 174.907 32.0262C175.022 32.4875 175.424 32.8046 175.913 32.8046H176.603C177.637 32.8046 178.643 32.8334 179.649 32.8046C180.454 32.8046 180.683 32.5451 180.712 31.7092V1.32588C180.683 0.432255 180.454 0.230469 179.591 0.230469ZM174.332 21.4469V26.6933C174.39 27.0392 174.188 27.3563 173.872 27.5005C172.493 28.2788 170.912 28.5959 169.36 28.3653C168.038 28.2211 166.889 27.414 166.285 26.2321C165.825 25.3096 165.567 24.3295 165.48 23.3206C165.251 21.5045 165.394 19.6596 165.825 17.9012C165.969 17.4111 166.141 16.9499 166.4 16.4887C167.004 15.3645 168.153 14.6438 169.418 14.5573C170.941 14.4132 172.464 14.7014 173.844 15.3356C174.188 15.4509 174.39 15.7969 174.361 16.1716C174.303 17.9588 174.332 19.6884 174.332 21.4469Z" fill="#232F3E"/>
<path d="M100.013 23.4356C102.168 23.8392 104.381 23.868 106.536 23.5221C107.801 23.3491 109.008 22.9744 110.129 22.369C111.422 21.6195 112.37 20.5818 112.773 19.1404C113.779 15.5083 112.227 11.8473 108.462 10.4925C106.623 9.8871 104.668 9.68531 102.743 9.94475C98.202 10.4636 95.2419 12.9715 93.8911 17.3244C92.9427 20.2935 93.0577 23.3203 93.8336 26.3183C94.8395 30.1522 97.3686 32.4295 101.191 33.2367C103.375 33.7267 105.588 33.6402 107.772 33.2943C108.922 33.0925 110.071 32.8043 111.163 32.3719C111.824 32.1124 112.169 31.7089 112.141 30.9594C112.112 30.2675 112.141 29.5469 112.141 28.8262C112.141 27.9614 111.796 27.702 110.962 27.9037C110.129 28.1055 109.324 28.2785 108.491 28.4515C106.709 28.8262 104.87 28.8262 103.088 28.5091C100.645 28.0191 99.0642 25.9147 99.2079 23.3203C99.4665 23.3491 99.7539 23.378 100.013 23.4356ZM99.2941 19.0251C99.3803 18.3333 99.5815 17.6703 99.8401 17.0361C100.702 14.9318 102.513 14.2111 104.352 14.3264C104.87 14.3552 105.387 14.4705 105.875 14.6723C106.623 14.9894 107.111 15.6813 107.197 16.4884C107.284 16.9785 107.255 17.4973 107.111 17.9874C106.766 19.0251 105.933 19.4575 104.927 19.6593C104.323 19.8035 103.691 19.8611 103.059 19.8035C101.938 19.8035 100.789 19.717 99.6677 19.544C99.2366 19.4864 99.2366 19.4864 99.2941 19.0251Z" fill="#00A8E1"/>
<path d="M196.95 23.7235C198.617 23.6082 200.284 23.2911 201.778 22.484C203.301 21.7345 204.365 20.322 204.681 18.65C204.882 17.6123 204.882 16.5169 204.652 15.4791C204.048 12.8847 202.41 11.2704 199.939 10.4344C198.559 10.002 197.094 9.82908 195.657 9.88673C190.828 10.002 187.15 12.4523 185.655 17.2952C184.649 20.4949 184.793 23.7523 185.77 26.9521C186.776 30.2383 189.075 32.2274 192.352 33.121C193.76 33.4669 195.226 33.611 196.662 33.5534C198.76 33.5246 200.858 33.121 202.841 32.3715C203.675 32.0544 203.876 31.7661 203.876 30.8725V28.797C203.847 27.961 203.502 27.6728 202.669 27.8745C202.037 28.0475 201.433 28.1916 200.801 28.3358C198.875 28.797 196.864 28.8835 194.909 28.5376C192.955 28.1628 191.633 27.0386 191.116 25.0784C190.972 24.5018 190.857 23.9253 190.8 23.3199C190.943 23.3199 191.087 23.3199 191.202 23.3776C193.099 23.7235 195.024 23.8676 196.95 23.7235ZM190.943 19.1113C191.145 17.987 191.403 16.8916 192.093 15.9692C193.156 14.5566 194.622 14.1531 196.289 14.326C196.433 14.326 196.548 14.3837 196.691 14.3837C198.703 14.7008 199.192 16.3151 198.818 17.8717C198.531 19.0248 197.582 19.4572 196.519 19.659C195.944 19.7743 195.34 19.8319 194.737 19.8031C193.559 19.7743 192.409 19.6878 191.26 19.5148C191.001 19.486 190.886 19.3707 190.943 19.1113Z" fill="#232F3E"/>
</svg>
